/* XPM */
static char *magick[] = {
/* columns rows colors chars-per-pixel */
"50 50 167 2",
"   c #000000",
".  c #060308",
"X  c #0c0305",
"o  c #0b0b0b",
"O  c #0d0610",
"+  c #13070d",
"@  c #1c0607",
"#  c #190d1f",
"$  c #151515",
"%  c #1e1e1e",
"&  c #250d1b",
"*  c #2e1c27",
"=  c #381428",
"-  c #232224",
";  c #2b2b2b",
":  c #32252c",
">  c #343434",
",  c #3d3d3d",
"<  c #361840",
"1  c #3b2643",
"2  c #451011",
"3  c #41172f",
"4  c #541b34",
"5  c #5d1d35",
"6  c #4c2c2c",
"7  c #611618",
"8  c #6f191b",
"9  c #6f1d2a",
"0  c #7d3b3e",
"q  c #4f174c",
"w  c #561851",
"e  c #5b195a",
"r  c #60185e",
"t  c #631962",
"y  c #691a69",
"u  c #7a3f41",
"i  c #652565",
"p  c #6c246c",
"a  c #692969",
"s  c #663366",
"d  c #673d67",
"f  c #6d366d",
"g  c #683b64",
"h  c #6a3e6a",
"j  c #722c72",
"k  c #753575",
"l  c #753e75",
"z  c #7a3f7a",
"x  c #424242",
"c  c #484848",
"v  c #555555",
"b  c #5b5b5b",
"n  c #664546",
"m  c #6b5556",
"M  c #6a5c5b",
"N  c #774446",
"B  c #734749",
"V  c #704c4d",
"C  c #794d4f",
"Z  c #744f51",
"A  c #725556",
"S  c #745658",
"D  c #755857",
"F  c #7f5b5c",
"G  c #674967",
"H  c #684068",
"J  c #645564",
"K  c #635c63",
"L  c #6c536c",
"P  c #685968",
"I  c #754375",
"U  c #704e70",
"Y  c #7d477d",
"T  c #7e487e",
"R  c #785578",
"E  c #656565",
"W  c #6e6364",
"Q  c #6a636a",
"!  c #6c6c6c",
"~  c #736464",
"^  c #746d6d",
"/  c #7b6c6d",
"(  c #776377",
")  c #746c74",
"_  c #747474",
"`  c #7c7c7c",
"'  c #801e27",
"]  c #8b1f22",
"[  c #941f24",
"{  c #8d272c",
"}  c #8d292c",
"|  c #872f33",
" . c #863539",
".. c #843b3f",
"X. c #8d3135",
"o. c #8d363a",
"O. c #922425",
"+. c #922529",
"@. c #94292d",
"#. c #9a3b3f",
"$. c #bd1812",
"%. c #b6372e",
"&. c #aa453f",
"*. c #854346",
"=. c #814649",
"-. c #864b4e",
";. c #884f4b",
":. c #8b524e",
">. c #815653",
",. c #8d5255",
"<. c #9b4347",
"1. c #8c6b6b",
"2. c #877172",
"3. c #8a7c7b",
"4. c #966a6c",
"5. c #a34d48",
"6. c #ab4740",
"7. c #a7514b",
"8. c #a8605b",
"9. c #a17577",
"0. c #d81f13",
"q. c #da2114",
"w. c #c2342a",
"e. c #e21003",
"r. c #ea1507",
"t. c #ec1608",
"y. c #f30f00",
"u. c #e0271b",
"i. c #e1281c",
"p. c #e72e22",
"a. c #d5473e",
"s. c #ca4a42",
"d. c #d15f57",
"f. c #c4605a",
"g. c #ca665f",
"h. c #804f80",
"j. c #845284",
"k. c #875b87",
"l. c #8a5e8a",
"z. c #856985",
"x. c #8e668e",
"c. c #8d6b8d",
"v. c #877387",
"b. c #8c768c",
"n. c #897b89",
"m. c #967e96",
"M. c #987a98",
"N. c #838383",
"B. c #8b8b8b",
"V. c #948d8d",
"C. c #988a89",
"Z. c #9d8a9d",
"A. c #949494",
"S. c #9e9090",
"D. c #9c9c9c",
"F. c #a98c8d",
"G. c #a58f90",
"H. c #a49596",
"J. c #aa9b9c",
"K. c #b89c9a",
"L. c #a394a3",
"P. c #a59ca5",
"I. c #a3a3a3",
"U. c #aaa5aa",
"Y. c #acacac",
"T. c #b7a9a8",
"R. c #b4b4b4",
/* pixels */
"R.R.R.R.R.R.R.R.R.R.R.R.R.R.R.R.R.R.R.R.R.R.R.R.R.R.R.R.R.R.R.R.R.R.R.R.R.R.R.R.R.R.R.R.R.R.R.R.R.R.",
"R.R.R.R.R.R.R.R.R.R.R.R.R.R.R.R.R.R.R.R.R.R.R.R.R.R.R.R.R.R.R.R.R.R.R.R.R.R.R.R.R.R.R.R.R.R.R.R.R.R.",
"R.R.R.R.R.R.R.R.R.R.R.R.R.R.R.R.R.R.R.R.R.R.R.R.R.R.R.R.R.R.R.R.R.R.R.R.R.R.R.R.R.R.R.R.R.R.R.R.R.R.",
"R.R.R.R.R.R.R.R.R.R.R.R.R.R.R.R.R.R.R.R.R.R.R.R.R.R.R.R.R.R.R.R.R.R.R.R.R.R.R.R.R.R.R.R.R.R.R.R.R.R.",
"R.R.R.R.R.R.R.R.R.R.R.R.R.R.R.R.R.R.R.R.R.R.R.R.R.R.R.R.R.R.R.R.R.R.R.R.R.R.M.y k.R.R.R.R.R.R.R.R.R.",
"R.R.R.R.R.R.R.R.R.R.R.R.R.R.R.R.R.R.R.R.R.R.R.R.R.R.R.R.R.R.R.R.R.R.R.R.R.x.y y j R.R.R.R.R.R.R.R.R.",
"R.R.R.R.R.R.R.R.R.R.R.R.R.R.R.R.R.R.R.R.R.R.R.R.R.R.R.R.R.R.R.R.R.R.R.R.j.y y y p L.R.R.R.R.R.R.R.R.",
"R.R.R.R.R.R.R.R.R.R.R.R.R.R.R.R.R.R.R.R.R.R.R.R.R.R.R.R.R.R.R.R.R.R.R.j.y y y y y j.R.R.R.R.R.R.R.R.",
"R.R.R.R.R.R.R.R.R.R.R.R.R.R.R.R.R.R.R.R.R.R.R.R.R.R.R.R.R.R.R.R.R.Y.k.y y y y y y k.Y.R.R.R.R.R.R.R.",
"R.R.R.R.R.R.R.R.R.R.R.R.R.R.R.R.R.R.R.R.R.R.R.R.R.R.R.R.R.R.R.R.R.T y y y y y y k P.Y.R.R.R.R.R.R.R.",
"R.R.R.R.R.R.R.R.R.R.R.R.R.R.R.R.R.R.R.R.R.R.R.R.R.R.R.R.R.R.R.P.I y y y y y y y z.I.Y.Y.R.R.R.R.R.R.",
"R.R.R.R.R.R.R.R.R.R.R.R.R.R.R.R.R.R.R.R.R.R.R.R.R.R.R.R.R.R.L.p y y y y y y y I A.I.U.Y.R.R.R.R.R.R.",
"R.R.R.R.R.R.R.R.R.R.R.R.R.R.R.R.R.R.R.R.R.R.R.R.R.R.R.R.R.L.p y y y y y y y f N.V.D.Y.Y.R.R.R.R.R.R.",
"R.R.R.R.R.R.R.R.R.R.R.R.R.R.R.R.R.R.R.R.R.R.R.R.R.R.R.R.Z.k y y y y y y y y U N.V.D.U.R.R.R.R.R.R.R.",
"R.R.R.R.R.R.R.R.R.R.R.R.R.R.R.R.R.R.R.R.R.R.R.R.R.R.Y.U.k y y y y y y y y p ) N.A.I.Y.Y.R.R.R.R.R.R.",
"R.R.R.R.R.R.R.R.R.R.R.R.R.R.R.R.R.R.R.R.R.R.R.R.R.R.U.Y p y y y y y y y y L ` B.D.I.Y.R.R.R.R.R.R.R.",
"R.R.R.R.R.R.R.R.R.R.R.R.R.R.R.R.R.R.R.R.R.R.R.R.Y.U.k y y y y y y y y y h ` N.V.S.G.<.@.R.R.R.R.R.R.",
"R.R.R.R.R.R.R.R.R.R.R.R.R.R.R.R.R.R.R.R.R.R.R.R.Y.c.y y y y y y y y y s ! n.1.+.O.[ [ #.R.R.R.R.R.R.",
"R.R.R.R.R.R.R.R.R.R.R.R.R.R.R.R.R.R.R.R.R.R.R.Y.m.y y y y y y y y y a Q ` ,.[ [ [ [ [ F.R.R.R.R.R.R.",
"R.R.R.R.R.R.R.R.R.R.R.R.R.R.R.R.R.R.R.R.R.R.R.P.y y y y y y y y y y L ^ o.[ [ [ [ [ [ @.Y.Y.R.R.R.R.",
"R.R.R.R.R.R.R.R.R.R.R.R.R.R.R.R.R.R.R.R.R.Y.Y.j y y y y y y y y y H ! X.[ [ [ [ [ [ [ [ J.R.R.R.R.R.",
"R.R.R.R.R.R.R.R.R.R.R.R.R.R.R.R.R.R.R.R.R.Y.h.y y y y y y y y y h W X.[ [ [ [ [ [ [ [ [ 9.T.R.R.R.R.",
"R.R.R.R.R.R.R.R.R.R.R.R.R.R.R.R.R.R.R.R.Y.P.y y y y y y y y y a E =.[ [ [ [ [ [ [ [ [ @.H.Y.R.R.R.R.",
"R.R.R.R.R.R.R.R.R.R.R.R.R.R.R.R.R.R.R.Y.D.g e t y y y y y y i E ..[ [ [ [ [ [ [ [ [ +.4.I.Y.R.R.R.R.",
"R.R.R.R.R.R.R.R.R.R.R.R.R.R.R.Y.) x $             O # < w i J C [ [ [ [ [ [ [ [ O.X.2.A.I.Y.R.R.R.R.",
"R.R.R.R.R.R.R.R.R.R.R.R.R.A.x       o > 1 < < : # .         $ 3 ' [ [ [ [ [ [ [ O./ N.C.f.g.K.T.R.R.",
"R.R.R.R.R.R.R.R.R.R.R.D.;       x B.I.b.y y y y y y r q - o       & ' [ [ [ [ +.~ _ 3.i.y.y.y.p.R.R.",
"R.R.R.R.R.R.R.R.R.R.b     o v D.I.I.D.j y y y y y y y s E ..' 4 +   X 5 [ [ | Z ! 7.t.y.y.y.y.y.R.R.",
"R.R.R.R.R.R.R.R.A.-     1 B.I.I.D.D.v.y y y y y y y y J Z [ [ [ [ 9 +   = O.V ! &.y.y.y.y.y.y.d.Y.R.",
"R.R.R.R.R.R.R.N.o   o ` I.D.D.A.A.B.I y y y y y y y J M { [ [ [ [ [ ] =   : ~ w.y.y.y.y.y.y.s.Y.Y.R.",
"R.R.R.R.R.R.!     % A.D.D.D.A.A.B.N.y y y y y y y s E  .[ [ [ [ [ [ [ [ *   } y.y.y.y.y.q.s.D.I.Y.R.",
"R.R.R.R.Y.`     , D.D.A.A.A.A.A.B.R y y y y y y i E A [ [ [ [ [ [ [ O.N >.2 X e.y.y.y.y.8.B.A.I.Y.Y.",
"R.R.R.R.A.o   x D.A.A.A.A.A.A.A.B.a y y y y y y G E ..O.[ [ [ [ [ [ 0 A r.e.@ 8 y.y.t.1.` B.A.I.Y.Y.",
"R.R.Y.Y.x   % A.A.A.A.A.A.D.D.A.z.y y y y y y H ! ~ [ O.[ [ [ [ [ B M 0.y.y.O.@ y.y.5._ ` B.A.I.Y.Y.",
"R.R.Y.A.  o N.A.A.A.A.D.D.I.D.D.l y y y y y a Q ! *.[ [ [ [ [ [ u M 0.y.y.y.y.@ $.6._ ` ` B.A.I.Y.Y.",
"R.R.Y.c   v A.A.A.A.D.I.U.I.I.A.y y y y y y P ! _ +.[ [ [ [ { V E ;.y.y.y.y.y.7 6 ! _ ` B.A.I.U.Y.R.",
"Y.Y.U.o % A.A.A.D.D.I.Y.Y.Y.D.n.y y y y i K ! _ >.[ [ [ [ +.m E E :.y.y.y.y.y.O.; _ ` B.A.D.U.Y.Y.R.",
"Y.U.I.  ! A.A.D.D.I.Y.Y.Y.U.D.n.y y y a P ! _ _ -.[ [ O. .K E ! ! ! q.y.y.y.r.n ; ` B.A.I.U.Y.R.R.R.",
"Y.U.D.N.A.A.D.D.U.Y.Y.Y.Y.U.D.B.( f h Q ! _ ` ` / @.o.S ! ! ! ^ _ _ ~ %.y.r.>.! b B.A.D.I.Y.Y.R.R.R.",
"Y.I.D.A.A.D.D.I.Y.R.R.R.Y.I.A.B.` ! ! ! _ ` ` N.` _ ! ! ! _ _ ` _ _ ! ! E E ! _ N.A.D.Y.Y.R.R.R.R.R.",
"Y.I.D.D.D.D.I.Y.Y.R.R.Y.Y.I.D.B.` _ _ _ ` N.B.N.` ` _ _ ` ` N.N.N.` _ ! ! ! _ ` A.D.I.Y.R.R.R.R.R.R.",
"Y.I.D.D.D.D.Y.Y.R.R.R.R.Y.D.A.B.N.` ` N.B.A.A.B.N.` ` ` N.B.B.B.B.N.` _ _ _ N.B.A.I.Y.Y.R.R.R.R.R.R.",
"Y.Y.D.I.Y.Y.Y.R.R.R.R.Y.Y.I.D.A.B.B.B.A.A.D.D.A.B.B.B.B.A.A.D.D.A.B.N.N.` N.B.A.D.I.Y.R.R.R.R.R.R.R.",
"Y.Y.Y.Y.Y.Y.Y.R.R.R.R.R.Y.Y.D.D.A.A.A.D.D.I.D.D.D.A.A.D.D.D.I.I.D.A.A.B.B.A.D.D.Y.Y.R.R.R.R.R.R.R.R.",
"R.Y.Y.Y.Y.Y.R.R.R.R.R.R.R.Y.Y.D.D.D.D.I.Y.Y.Y.I.D.D.D.I.I.Y.Y.Y.Y.I.D.D.D.D.I.I.Y.Y.R.R.R.R.R.R.R.R.",
"R.Y.R.R.R.Y.R.R.R.R.R.R.R.Y.Y.Y.Y.U.Y.R.Y.Y.Y.Y.Y.Y.Y.Y.Y.Y.R.Y.Y.Y.Y.I.I.Y.Y.Y.R.Y.R.R.R.R.R.R.R.R.",
"R.R.R.R.R.R.R.R.R.R.R.R.R.R.R.R.Y.R.Y.Y.R.R.R.Y.Y.Y.R.R.R.R.R.R.R.R.Y.Y.Y.Y.Y.Y.R.R.R.R.R.R.R.R.R.R.",
"R.R.R.R.R.R.R.R.R.R.R.R.R.R.R.R.R.R.R.R.R.R.R.R.R.R.R.R.R.R.R.R.R.R.R.R.R.R.R.R.R.R.R.R.R.R.R.R.R.R.",
"R.R.R.R.R.R.R.R.R.R.R.R.R.R.R.R.R.R.R.R.R.R.R.R.R.R.R.R.R.R.R.R.R.R.R.R.R.R.R.R.R.R.R.R.R.R.R.R.R.R.",
"R.R.R.R.R.R.R.R.R.R.R.R.R.R.R.R.R.R.R.R.R.R.R.R.R.R.R.R.R.R.R.R.R.R.R.R.R.R.R.R.R.R.R.R.R.R.R.R.R.R."
};
