#define minus_width 12
#define minus_height 14
static char minus_bits[] = {
   0x00, 0x00, 0x00, 0x00, 0xfe, 0x0f, 0x02, 0x08, 0x02, 0x08, 0x02, 0x08,
   0x02, 0x08, 0xfa, 0x0b, 0x02, 0x08, 0x02, 0x08, 0x02, 0x08, 0x02, 0x08,
   0xfe, 0x0f, 0x00, 0x00};
