#define plus_width 12
#define plus_height 14
static char plus_bits[] = {
   0x00, 0x00, 0x00, 0x00, 0xfe, 0x0f, 0x02, 0x08, 0x42, 0x08, 0x42, 0x08,
   0x42, 0x08, 0xfa, 0x0b, 0x42, 0x08, 0x42, 0x08, 0x42, 0x08, 0x02, 0x08,
   0xfe, 0x0f, 0x00, 0x00};
