#define anchor_width 17
#define anchor_height 17
#define anchor_x_hot -1
#define anchor_y_hot -1
static char anchor_bits[] = {
   0x80, 0x03, 0x00, 0x40, 0x05, 0x00, 0xc0, 0x02, 0x00, 0x40, 0x05, 0x00,
   0x80, 0x02, 0x00, 0x10, 0x11, 0x00, 0x30, 0x09, 0x00, 0x50, 0x15, 0x00,
   0x01, 0x01, 0x01, 0x01, 0x01, 0x01, 0x83, 0x82, 0x00, 0x85, 0x41, 0x01,
   0xfa, 0xbe, 0x00, 0x54, 0x55, 0x00, 0xa8, 0x2a, 0x00, 0x50, 0x15, 0x00,
   0x80, 0x02, 0x00};
