#define square_sol_width 16
#define square_sol_height 16
static unsigned char square_sol_bits[] = {
   0x00, 0x00, 0xf8, 0x0f, 0x08, 0x00, 0x08, 0x00, 0x08, 0x00, 0x08, 0x00,
   0x08, 0x00, 0x08, 0x00, 0xf8, 0x0f, 0x00, 0x08, 0x00, 0x08, 0x00, 0x08,
   0x00, 0x08, 0x00, 0x08, 0x00, 0x08, 0xf8, 0x0f};
