#define ticks_in_ins_width 18
#define ticks_in_ins_height 16
static char ticks_in_ins_bits[] = {
   0x02, 0x00, 0x00, 0x00, 0x00, 0x00, 0x02, 0x00, 0x00, 0x00, 0x00, 0x00,
   0x02, 0x00, 0x00, 0x00, 0x00, 0x00, 0x02, 0x00, 0x00, 0x00, 0x00, 0x00,
   0x82, 0x20, 0x00, 0x10, 0x04, 0x01, 0x82, 0x20, 0x00, 0x10, 0x04, 0x01,
   0x82, 0x20, 0x00, 0x54, 0x55, 0x01, 0x00, 0x00, 0x00, 0x00, 0x00, 0x00};
