#define ticks_in_width 18
#define ticks_in_height 16
static char ticks_in_bits[] = {
   0x02, 0x00, 0x00, 0x02, 0x00, 0x00, 0x02, 0x00, 0x00, 0x02, 0x00, 0x00,
   0x02, 0x00, 0x00, 0x02, 0x00, 0x00, 0x02, 0x00, 0x00, 0x82, 0x20, 0x00,
   0x82, 0x20, 0x00, 0x92, 0x24, 0x01, 0x92, 0x24, 0x01, 0x92, 0x24, 0x01,
   0x92, 0x24, 0x01, 0xfe, 0xff, 0x03, 0x00, 0x00, 0x00, 0x00, 0x00, 0x00};
