#define ticks_out_ins_width 18
#define ticks_out_ins_height 16
static char ticks_out_ins_bits[] = {
   0x02, 0x00, 0x00, 0x00, 0x00, 0x00, 0x02, 0x00, 0x00, 0x00, 0x00, 0x00,
   0x02, 0x00, 0x00, 0x00, 0x00, 0x00, 0x02, 0x00, 0x00, 0x00, 0x00, 0x00,
   0x02, 0x00, 0x00, 0x00, 0x00, 0x00, 0xaa, 0xaa, 0x02, 0x04, 0x41, 0x00,
   0x20, 0x08, 0x02, 0x04, 0x41, 0x00, 0x20, 0x08, 0x02, 0x00, 0x00, 0x00};
