#define ticks_out_width 18
#define ticks_out_height 16
static char ticks_out_bits[] = {
   0x02, 0x00, 0x00, 0x02, 0x00, 0x00, 0x02, 0x00, 0x00, 0x02, 0x00, 0x00,
   0x02, 0x00, 0x00, 0x02, 0x00, 0x00, 0x02, 0x00, 0x00, 0x02, 0x00, 0x00,
   0x02, 0x00, 0x00, 0x02, 0x00, 0x00, 0xfe, 0xff, 0x03, 0x24, 0x49, 0x02,
   0x24, 0x49, 0x02, 0x24, 0x49, 0x02, 0x20, 0x08, 0x02, 0x20, 0x08, 0x02};
