#define col_insens_width 20
#define col_insens_height 20
static char col_insens_bits[] = {
   0x00, 0x00, 0x00, 0x55, 0x55, 0x05, 0x00, 0x00, 0x08, 0x00, 0x80, 0x02,
   0x00, 0x28, 0x00, 0x80, 0x02, 0x00, 0x28, 0x00, 0x00, 0x02, 0x00, 0x00,
   0x55, 0x55, 0x05, 0x00, 0x00, 0x08, 0x00, 0x80, 0x02, 0x00, 0x28, 0x00,
   0x80, 0x02, 0x01, 0x28, 0x00, 0x02, 0x02, 0x00, 0x04, 0x55, 0x55, 0x0d,
   0x00, 0x00, 0x04, 0x00, 0x00, 0x02, 0x00, 0x00, 0x01, 0x00, 0x00, 0x00};
