#define col_sens_width 20
#define col_sens_height 20
static char col_sens_bits[] = {
   0x00, 0x00, 0x00, 0xff, 0xff, 0x0f, 0x00, 0x00, 0x0c, 0x00, 0xc0, 0x03,
   0x00, 0x3c, 0x00, 0xc0, 0x03, 0x00, 0x3c, 0x00, 0x00, 0x03, 0x00, 0x00,
   0xff, 0xff, 0x0f, 0x00, 0x00, 0x0c, 0x00, 0xc0, 0x03, 0x00, 0x3c, 0x00,
   0xc0, 0x03, 0x01, 0x3c, 0x00, 0x03, 0x03, 0x00, 0x06, 0xff, 0xff, 0x0f,
   0x00, 0x00, 0x06, 0x00, 0x00, 0x03, 0x00, 0x00, 0x01, 0x00, 0x00, 0x00};
