#define grid1_width 37
#define grid1_height 37
static char grid1_bits[] = {
   0xff, 0xff, 0xff, 0xff, 0x1f, 0x41, 0x10, 0x04, 0x41, 0x10, 0x41, 0x10,
   0x04, 0x41, 0x10, 0x41, 0x10, 0x04, 0x41, 0x10, 0x41, 0x10, 0x04, 0x41,
   0x10, 0x41, 0x10, 0x04, 0x41, 0x10, 0xff, 0xff, 0xff, 0xff, 0x1f, 0x41,
   0x10, 0x04, 0x41, 0x10, 0x41, 0x10, 0x04, 0x41, 0x10, 0x41, 0x10, 0x04,
   0x41, 0x10, 0x41, 0x10, 0x04, 0x41, 0x10, 0x41, 0x10, 0x04, 0x41, 0x10,
   0xff, 0xff, 0xff, 0xff, 0x1f, 0x41, 0x10, 0x04, 0x41, 0x10, 0x41, 0x10,
   0x04, 0x41, 0x10, 0x41, 0x10, 0x04, 0x41, 0x10, 0x41, 0x10, 0x04, 0x41,
   0x10, 0x41, 0x10, 0x04, 0x41, 0x10, 0xff, 0xff, 0xff, 0xff, 0x1f, 0x41,
   0x10, 0x04, 0x41, 0x10, 0x41, 0x10, 0x04, 0x41, 0x10, 0x41, 0x10, 0x04,
   0x41, 0x10, 0x41, 0x10, 0x04, 0x41, 0x10, 0x41, 0x10, 0x04, 0x41, 0x10,
   0xff, 0xff, 0xff, 0xff, 0x1f, 0x41, 0x10, 0x04, 0x41, 0x10, 0x41, 0x10,
   0x04, 0x41, 0x10, 0x41, 0x10, 0x04, 0x41, 0x10, 0x41, 0x10, 0x04, 0x41,
   0x10, 0x41, 0x10, 0x04, 0x41, 0x10, 0xff, 0xff, 0xff, 0xff, 0x1f, 0x41,
   0x10, 0x04, 0x41, 0x10, 0x41, 0x10, 0x04, 0x41, 0x10, 0x41, 0x10, 0x04,
   0x41, 0x10, 0x41, 0x10, 0x04, 0x41, 0x10, 0x41, 0x10, 0x04, 0x41, 0x10,
   0xff, 0xff, 0xff, 0xff, 0x1f};
