#define grid3_width 37
#define grid3_height 37
static char grid3_bits[] = {
   0x00, 0xf0, 0xff, 0x01, 0x00, 0x00, 0x0f, 0x04, 0x1e, 0x00, 0xe0, 0x00,
   0x04, 0xe0, 0x00, 0x98, 0x00, 0x04, 0x20, 0x03, 0x86, 0x00, 0x04, 0x20,
   0x0c, 0x01, 0x01, 0x04, 0x10, 0x10, 0x01, 0x01, 0x04, 0x10, 0x10, 0x02,
   0x01, 0x04, 0x10, 0x08, 0x02, 0xe1, 0xff, 0x10, 0x08, 0x02, 0x1e, 0x04,
   0x0f, 0x08, 0x84, 0x03, 0x04, 0x38, 0x04, 0x64, 0x02, 0x04, 0xc8, 0x04,
   0x1c, 0x02, 0x04, 0x08, 0x07, 0x08, 0x04, 0x04, 0x04, 0x02, 0x08, 0x04,
   0x04, 0x04, 0x02, 0x10, 0x04, 0x04, 0x04, 0x01, 0x10, 0x04, 0x04, 0x04,
   0x01, 0x10, 0x08, 0x04, 0x02, 0x01, 0x20, 0xc8, 0x7f, 0x82, 0x00, 0x20,
   0x38, 0x84, 0x83, 0x00, 0x20, 0x0e, 0x04, 0x8e, 0x00, 0x40, 0x13, 0x04,
   0x51, 0x00, 0xc0, 0x10, 0x04, 0x61, 0x00, 0x40, 0x10, 0x04, 0x41, 0x00,
   0x80, 0x10, 0x04, 0x21, 0x00, 0x80, 0x20, 0x84, 0x20, 0x00, 0x80, 0x20,
   0x84, 0x20, 0x00, 0x00, 0x21, 0x84, 0x10, 0x00, 0x00, 0x21, 0x84, 0x10,
   0x00, 0x00, 0x42, 0x5f, 0x08, 0x00, 0x00, 0xc2, 0x60, 0x08, 0x00, 0x00,
   0x22, 0x80, 0x08, 0x00, 0x00, 0x14, 0x00, 0x05, 0x00, 0x00, 0x14, 0x00,
   0x05, 0x00, 0x00, 0x08, 0x00, 0x02, 0x00, 0x00, 0x00, 0x00, 0x00, 0x00,
   0x00, 0x00, 0x00, 0x00, 0x00};
