#define row_insens_width 20
#define row_insens_height 20
static char row_insens_bits[] = {
   0x02, 0x81, 0x00, 0x80, 0x40, 0x00, 0x02, 0x81, 0x00, 0x40, 0x20, 0x00,
   0x02, 0x81, 0x00, 0x40, 0x20, 0x00, 0x02, 0x81, 0x00, 0x20, 0x10, 0x00,
   0x02, 0x81, 0x00, 0x20, 0x10, 0x00, 0x02, 0x81, 0x00, 0x10, 0x08, 0x00,
   0x02, 0x81, 0x00, 0x10, 0x08, 0x00, 0x02, 0x81, 0x00, 0x08, 0x04, 0x00,
   0x02, 0x91, 0x04, 0x08, 0x24, 0x02, 0x02, 0xc1, 0x01, 0x04, 0x82, 0x00};
