#define series1_width 214
#define series1_height 20
static unsigned char series1_bits[] = {
   0x00, 0x00, 0x00, 0x00, 0x00, 0x00, 0x00, 0x00, 0x00, 0x00, 0x00, 0x00,
   0x00, 0x00, 0x00, 0x00, 0x00, 0x00, 0x00, 0x00, 0x00, 0x00, 0x00, 0x00,
   0x00, 0x00, 0x00, 0x00, 0x00, 0x00, 0x00, 0x00, 0x00, 0x00, 0x00, 0x00,
   0x00, 0x00, 0x00, 0x00, 0x00, 0x00, 0x00, 0x00, 0x00, 0x00, 0x00, 0x00,
   0x00, 0x00, 0x00, 0x00, 0x00, 0x00, 0x00, 0x00, 0x00, 0x1e, 0x00, 0x00,
   0x00, 0x1e, 0x00, 0x00, 0x00, 0x0c, 0x00, 0x00, 0x00, 0x0c, 0x00, 0x00,
   0x00, 0x00, 0x3c, 0x1b, 0x00, 0x00, 0x3c, 0x1b, 0x00, 0x00, 0x00, 0x00,
   0x33, 0x00, 0x00, 0x00, 0x33, 0x00, 0x00, 0x00, 0x0f, 0x00, 0x00, 0x00,
   0x0f, 0x00, 0x00, 0x00, 0x00, 0x66, 0x37, 0x00, 0x00, 0x66, 0x37, 0x00,
   0x00, 0x00, 0x3c, 0x33, 0x00, 0x00, 0x3c, 0x33, 0x00, 0x00, 0x3c, 0x0c,
   0x00, 0x00, 0x3c, 0x0c, 0x00, 0x00, 0x00, 0x00, 0x0e, 0x33, 0x00, 0x00,
   0x0e, 0x33, 0x00, 0x00, 0x00, 0x66, 0x33, 0x00, 0x00, 0x66, 0x33, 0x00,
   0x00, 0x66, 0x0c, 0x00, 0x00, 0x66, 0x0c, 0x00, 0x00, 0x00, 0x00, 0x38,
   0x33, 0x00, 0x00, 0x38, 0x33, 0x00, 0xf0, 0x33, 0x0e, 0x33, 0xf0, 0x7b,
   0x0e, 0x33, 0xf0, 0x33, 0x0e, 0x0c, 0xf0, 0x7b, 0x0e, 0x0c, 0x00, 0x00,
   0xf0, 0x33, 0x70, 0x33, 0xf0, 0x7b, 0x70, 0x33, 0x00, 0x30, 0x3c, 0x38,
   0x33, 0x30, 0xcc, 0x38, 0x33, 0x30, 0x3c, 0x38, 0x0c, 0x30, 0xcc, 0x38,
   0x0c, 0x00, 0x00, 0x30, 0x3c, 0x66, 0x33, 0x30, 0xcc, 0x66, 0x33, 0x00,
   0x30, 0x30, 0x70, 0x33, 0x30, 0xc0, 0x70, 0x33, 0x30, 0x30, 0x70, 0x0c,
   0x30, 0xc0, 0x70, 0x0c, 0x00, 0x00, 0x30, 0x30, 0x3c, 0x33, 0x30, 0xc0,
   0x3c, 0x33, 0x00, 0x30, 0x30, 0x66, 0x33, 0x30, 0x60, 0x66, 0x33, 0x30,
   0x30, 0x66, 0x0c, 0x30, 0x60, 0x66, 0x0c, 0x00, 0x00, 0x30, 0x30, 0x00,
   0x00, 0x30, 0x60, 0x00, 0x00, 0x00, 0xf0, 0x31, 0x3c, 0x1e, 0xf0, 0x31,
   0x3c, 0x1e, 0xf0, 0x31, 0x3c, 0x0c, 0xf0, 0x31, 0x3c, 0x0c, 0x00, 0x00,
   0xf0, 0x31, 0x00, 0x00, 0xf0, 0x31, 0x00, 0x00, 0x00, 0x30, 0x30, 0x00,
   0x00, 0x30, 0x18, 0x00, 0x00, 0x30, 0x30, 0x00, 0x00, 0x30, 0x18, 0x00,
   0x00, 0x00, 0x00, 0x30, 0x30, 0x00, 0x00, 0x30, 0x18, 0x00, 0x00, 0x00,
   0x30, 0x30, 0x00, 0x00, 0x30, 0x0c, 0x00, 0x00, 0x30, 0x30, 0x00, 0x00,
   0x30, 0x0c, 0x00, 0x00, 0x00, 0x00, 0x30, 0x30, 0x00, 0x00, 0x30, 0x0c,
   0x00, 0x00, 0x00, 0x30, 0x30, 0x00, 0x00, 0x33, 0x0c, 0x00, 0x00, 0x33,
   0x30, 0x00, 0x00, 0x33, 0x0c, 0x00, 0x00, 0x33, 0x33, 0x33, 0x30, 0x00,
   0x00, 0x33, 0x0c, 0x00, 0x00, 0x00, 0x30, 0x30, 0x00, 0x00, 0x33, 0xfc,
   0x00, 0x00, 0x33, 0x30, 0x00, 0x00, 0x33, 0xfc, 0x00, 0x00, 0x33, 0x33,
   0x33, 0x30, 0x00, 0x00, 0x33, 0xfc, 0x00, 0x00, 0x00, 0x00, 0x00, 0x00,
   0x00, 0x02, 0x00, 0x00, 0x00, 0x02, 0x00, 0x00, 0x00, 0x02, 0x00, 0x00,
   0x00, 0x02, 0x00, 0x02, 0x00, 0x00, 0x00, 0x02, 0x00, 0x00, 0x00, 0x00,
   0x00, 0x00, 0x00, 0x00, 0x01, 0x00, 0x00, 0x00, 0x01, 0x00, 0x00, 0x00,
   0x01, 0x00, 0x00, 0x00, 0x01, 0x00, 0x01, 0x00, 0x00, 0x00, 0x01, 0x00,
   0x00, 0x00, 0x00, 0x00, 0x00, 0x00, 0x00, 0x00, 0x00, 0x00, 0x00, 0x00,
   0x00, 0x00, 0x00, 0x00, 0x00, 0x00, 0x00, 0x00, 0x00, 0x00, 0x00, 0x00,
   0x00, 0x00, 0x00, 0x00, 0x00, 0x00, 0x00, 0x00, 0x00, 0x00, 0x00, 0x00,
   0x00, 0x00, 0x00, 0x00, 0x00, 0x00, 0x00, 0x00, 0x00, 0x00, 0x00, 0x00,
   0x00, 0x00, 0x00, 0x00, 0x00, 0x00, 0x00, 0x00, 0x00, 0x00, 0x00, 0x00,
   0x00, 0x00, 0x00, 0x00, 0x00, 0x00, 0x00, 0x00, 0x00, 0x00, 0x00, 0x00,
   0x00, 0x00, 0x00, 0x00, 0x00, 0x00, 0x00, 0x00, 0x00, 0x00, 0x00, 0x00};
