#define series1_insens_width 214
#define series1_insens_height 20
static unsigned char series1_insens_bits[] = {
   0x00, 0x00, 0x00, 0x00, 0x00, 0x00, 0x00, 0x00, 0x00, 0x00, 0x00, 0x00,
   0x00, 0x00, 0x00, 0x00, 0x00, 0x00, 0x00, 0x00, 0x00, 0x00, 0x00, 0x00,
   0x00, 0x00, 0x00, 0x00, 0x00, 0x00, 0x00, 0x00, 0x00, 0x00, 0x00, 0x00,
   0x00, 0x00, 0x00, 0x00, 0x00, 0x00, 0x00, 0x00, 0x00, 0x00, 0x00, 0x00,
   0x00, 0x00, 0x00, 0x00, 0x00, 0x00, 0x00, 0x00, 0x00, 0x00, 0x00, 0x00,
   0x00, 0x00, 0x00, 0x00, 0x00, 0x00, 0x00, 0x00, 0x00, 0x00, 0x00, 0x00,
   0x00, 0x00, 0x00, 0x00, 0x00, 0x00, 0x00, 0x00, 0x00, 0x00, 0x00, 0x00,
   0x0a, 0x00, 0x00, 0x00, 0x0a, 0x00, 0x00, 0x00, 0x08, 0x00, 0x00, 0x00,
   0x08, 0x00, 0x00, 0x00, 0x00, 0x14, 0x05, 0x00, 0x00, 0x28, 0x0a, 0x00,
   0x00, 0x00, 0x00, 0x11, 0x00, 0x00, 0x00, 0x11, 0x00, 0x00, 0x00, 0x05,
   0x00, 0x00, 0x00, 0x05, 0x00, 0x00, 0x00, 0x00, 0xa2, 0x0a, 0x00, 0x00,
   0x44, 0x15, 0x00, 0x00, 0x00, 0x28, 0x22, 0x00, 0x00, 0x28, 0x22, 0x00,
   0x00, 0x28, 0x08, 0x00, 0x00, 0x28, 0x08, 0x00, 0x00, 0x00, 0x00, 0x05,
   0x11, 0x00, 0x00, 0x0a, 0x22, 0x00, 0x00, 0x00, 0x44, 0x11, 0x00, 0x00,
   0x44, 0x11, 0x00, 0x00, 0x44, 0x04, 0x00, 0x00, 0x44, 0x04, 0x00, 0x00,
   0x00, 0x00, 0x88, 0x08, 0x00, 0x00, 0x10, 0x11, 0x00, 0xa0, 0x22, 0x0a,
   0x22, 0xa0, 0x2a, 0x0a, 0x22, 0xa0, 0x22, 0x0a, 0x08, 0xa0, 0x2a, 0x0a,
   0x08, 0x00, 0x00, 0xa0, 0x22, 0x10, 0x11, 0xa0, 0x2a, 0x20, 0x22, 0x00,
   0x10, 0x14, 0x10, 0x11, 0x10, 0x44, 0x10, 0x11, 0x10, 0x14, 0x10, 0x04,
   0x10, 0x44, 0x10, 0x04, 0x00, 0x00, 0x10, 0x14, 0xa2, 0x08, 0x10, 0x44,
   0x44, 0x11, 0x00, 0x20, 0x20, 0x20, 0x22, 0x20, 0x80, 0x20, 0x22, 0x20,
   0x20, 0x20, 0x08, 0x20, 0x80, 0x20, 0x08, 0x00, 0x00, 0x20, 0x20, 0x14,
   0x11, 0x20, 0x80, 0x28, 0x22, 0x00, 0x10, 0x10, 0x44, 0x11, 0x10, 0x40,
   0x44, 0x11, 0x10, 0x10, 0x44, 0x04, 0x10, 0x40, 0x44, 0x04, 0x00, 0x00,
   0x10, 0x10, 0x00, 0x00, 0x10, 0x40, 0x00, 0x00, 0x00, 0xa0, 0x20, 0x28,
   0x0a, 0xa0, 0x20, 0x28, 0x0a, 0xa0, 0x20, 0x28, 0x08, 0xa0, 0x20, 0x28,
   0x08, 0x00, 0x00, 0xa0, 0x20, 0x00, 0x00, 0xa0, 0x20, 0x00, 0x00, 0x00,
   0x10, 0x10, 0x00, 0x00, 0x10, 0x10, 0x00, 0x00, 0x10, 0x10, 0x00, 0x00,
   0x10, 0x10, 0x00, 0x00, 0x00, 0x00, 0x10, 0x10, 0x00, 0x00, 0x10, 0x10,
   0x00, 0x00, 0x00, 0x20, 0x20, 0x00, 0x00, 0x20, 0x08, 0x00, 0x00, 0x20,
   0x20, 0x00, 0x00, 0x20, 0x08, 0x00, 0x00, 0x00, 0x00, 0x20, 0x20, 0x00,
   0x00, 0x20, 0x08, 0x00, 0x00, 0x00, 0x10, 0x10, 0x00, 0x00, 0x11, 0x04,
   0x00, 0x00, 0x11, 0x10, 0x00, 0x00, 0x11, 0x04, 0x00, 0x00, 0x11, 0x11,
   0x11, 0x10, 0x00, 0x00, 0x11, 0x04, 0x00, 0x00, 0x00, 0x20, 0x20, 0x00,
   0x00, 0x22, 0xa8, 0x00, 0x00, 0x22, 0x20, 0x00, 0x00, 0x22, 0xa8, 0x00,
   0x00, 0x22, 0x22, 0x22, 0x20, 0x00, 0x00, 0x22, 0xa8, 0x00, 0x00, 0x00,
   0x00, 0x00, 0x00, 0x00, 0x00, 0x00, 0x00, 0x00, 0x00, 0x00, 0x00, 0x00,
   0x00, 0x00, 0x00, 0x00, 0x00, 0x00, 0x00, 0x00, 0x00, 0x00, 0x00, 0x00,
   0x00, 0x00, 0x00, 0x00, 0x00, 0x00, 0x00, 0x00, 0x00, 0x00, 0x00, 0x00,
   0x00, 0x00, 0x00, 0x00, 0x00, 0x00, 0x00, 0x00, 0x00, 0x00, 0x00, 0x00,
   0x00, 0x00, 0x00, 0x00, 0x00, 0x00, 0x00, 0x00, 0x00, 0x00, 0x00, 0x00,
   0x00, 0x00, 0x00, 0x00, 0x00, 0x00, 0x00, 0x00, 0x00, 0x00, 0x00, 0x00,
   0x00, 0x00, 0x00, 0x00, 0x00, 0x00, 0x00, 0x00, 0x00, 0x00, 0x00, 0x00,
   0x00, 0x00, 0x00, 0x00, 0x00, 0x00, 0x00, 0x00, 0x00, 0x00, 0x00, 0x00,
   0x00, 0x00, 0x00, 0x00, 0x00, 0x00, 0x00, 0x00, 0x00, 0x00, 0x00, 0x00};
