#define series2_width 214
#define series2_height 20
static unsigned char series2_bits[] = {
   0x00, 0x00, 0x00, 0x00, 0x00, 0x00, 0x00, 0x00, 0x00, 0x00, 0x00, 0x00,
   0x00, 0x00, 0x00, 0x00, 0x00, 0x00, 0x00, 0x00, 0x00, 0x00, 0x00, 0x00,
   0x00, 0x00, 0x00, 0x00, 0x00, 0x00, 0x00, 0x00, 0x00, 0x00, 0x00, 0x00,
   0x00, 0x00, 0x00, 0x00, 0x00, 0x00, 0x00, 0x00, 0x00, 0x00, 0x00, 0x00,
   0x00, 0x00, 0x00, 0x00, 0x00, 0x00, 0x00, 0x00, 0x00, 0x1e, 0x00, 0x00,
   0x00, 0x06, 0x00, 0x00, 0x00, 0x0f, 0x00, 0x00, 0x00, 0x0c, 0x00, 0x00,
   0x00, 0x00, 0x00, 0x1e, 0x00, 0x00, 0x00, 0x0c, 0x00, 0x00, 0x00, 0x00,
   0x33, 0x00, 0x00, 0x80, 0x07, 0x00, 0x00, 0x80, 0x19, 0x00, 0x00, 0x00,
   0x0f, 0x00, 0x00, 0x00, 0x00, 0x00, 0x33, 0x00, 0x00, 0x00, 0x0f, 0x00,
   0x00, 0x00, 0x3c, 0x33, 0x00, 0x00, 0x1e, 0x06, 0x00, 0x00, 0x9e, 0x19,
   0x00, 0x00, 0x3c, 0x0c, 0x00, 0x00, 0x00, 0x00, 0x3c, 0x33, 0x00, 0x00,
   0x3c, 0x0c, 0x00, 0x00, 0x00, 0x66, 0x33, 0x00, 0x00, 0x33, 0x06, 0x00,
   0x00, 0xb3, 0x19, 0x00, 0x00, 0x66, 0x0c, 0x00, 0x00, 0x00, 0x00, 0x66,
   0x33, 0x00, 0x00, 0x66, 0x0c, 0x00, 0xf0, 0x33, 0x0e, 0x33, 0xf0, 0x33,
   0x07, 0x06, 0xf0, 0x7b, 0x87, 0x19, 0xf0, 0x7b, 0x0e, 0x0c, 0x00, 0x00,
   0xf0, 0x03, 0x0e, 0x33, 0xf0, 0x03, 0x0e, 0x0c, 0x00, 0x30, 0x3c, 0x38,
   0x33, 0x30, 0x3c, 0x1c, 0x06, 0x30, 0x4c, 0x9c, 0x19, 0x30, 0xcc, 0x38,
   0x0c, 0x00, 0x00, 0x30, 0x00, 0x38, 0x33, 0x30, 0x00, 0x38, 0x0c, 0x00,
   0x30, 0x30, 0x70, 0x33, 0x30, 0x30, 0x38, 0x06, 0x30, 0x40, 0xb8, 0x19,
   0x30, 0xc0, 0x70, 0x0c, 0x00, 0x00, 0x30, 0x6c, 0x70, 0x33, 0x30, 0x6c,
   0x70, 0x0c, 0x00, 0x30, 0x30, 0x66, 0x33, 0x30, 0x30, 0x33, 0x06, 0x30,
   0x60, 0xb3, 0x19, 0x30, 0x60, 0x66, 0x0c, 0x00, 0x00, 0x30, 0xdc, 0x66,
   0x33, 0x30, 0xdc, 0x66, 0x0c, 0x00, 0xf0, 0x31, 0x3c, 0x1e, 0xf0, 0x31,
   0x1e, 0x06, 0xf0, 0x31, 0x1e, 0x0f, 0xf0, 0x31, 0x3c, 0x0c, 0x00, 0x00,
   0xf0, 0xcd, 0x3c, 0x1e, 0xf0, 0xcd, 0x3c, 0x0c, 0x00, 0x30, 0x30, 0x00,
   0x00, 0x30, 0x30, 0x00, 0x00, 0x30, 0x18, 0x00, 0x00, 0x30, 0x18, 0x00,
   0x00, 0x00, 0x00, 0x30, 0xcc, 0x00, 0x00, 0x30, 0xcc, 0x00, 0x00, 0x00,
   0x30, 0x30, 0x00, 0x00, 0x30, 0x30, 0x00, 0x00, 0x30, 0x0c, 0x00, 0x00,
   0x30, 0x0c, 0x00, 0x00, 0x00, 0x00, 0x30, 0xcc, 0x00, 0x00, 0x30, 0xcc,
   0x00, 0x00, 0x00, 0x30, 0x30, 0x00, 0x00, 0x33, 0x30, 0x00, 0x00, 0x33,
   0x0c, 0x00, 0x00, 0x33, 0x0c, 0x00, 0x00, 0x33, 0x33, 0x33, 0xcc, 0x00,
   0x00, 0x33, 0xcc, 0x00, 0x00, 0x00, 0x30, 0x30, 0x00, 0x00, 0x33, 0x30,
   0x00, 0x00, 0x33, 0xfc, 0x00, 0x00, 0x33, 0xfc, 0x00, 0x00, 0x33, 0x33,
   0x33, 0xcc, 0x00, 0x00, 0x33, 0xcc, 0x00, 0x00, 0x00, 0x00, 0x00, 0x00,
   0x00, 0x02, 0x00, 0x00, 0x00, 0x02, 0x00, 0x00, 0x00, 0x02, 0x00, 0x00,
   0x00, 0x02, 0x00, 0x02, 0x00, 0x00, 0x00, 0x02, 0x00, 0x00, 0x00, 0x00,
   0x00, 0x00, 0x00, 0x00, 0x01, 0x00, 0x00, 0x00, 0x01, 0x00, 0x00, 0x00,
   0x01, 0x00, 0x00, 0x00, 0x01, 0x00, 0x01, 0x00, 0x00, 0x00, 0x01, 0x00,
   0x00, 0x00, 0x00, 0x00, 0x00, 0x00, 0x00, 0x00, 0x00, 0x00, 0x00, 0x00,
   0x00, 0x00, 0x00, 0x00, 0x00, 0x00, 0x00, 0x00, 0x00, 0x00, 0x00, 0x00,
   0x00, 0x00, 0x00, 0x00, 0x00, 0x00, 0x00, 0x00, 0x00, 0x00, 0x00, 0x00,
   0x00, 0x00, 0x00, 0x00, 0x00, 0x00, 0x00, 0x00, 0x00, 0x00, 0x00, 0x00,
   0x00, 0x00, 0x00, 0x00, 0x00, 0x00, 0x00, 0x00, 0x00, 0x00, 0x00, 0x00,
   0x00, 0x00, 0x00, 0x00, 0x00, 0x00, 0x00, 0x00, 0x00, 0x00, 0x00, 0x00,
   0x00, 0x00, 0x00, 0x00, 0x00, 0x00, 0x00, 0x00, 0x00, 0x00, 0x00, 0x00};
