#define vector2_insens_width 148
#define vector2_insens_height 20
static unsigned char vector2_insens_bits[] = {
   0x00, 0x00, 0x00, 0x00, 0x00, 0x00, 0x00, 0x00, 0x00, 0x00, 0x00, 0x00,
   0x00, 0x00, 0x00, 0x00, 0x00, 0x00, 0x00, 0x00, 0x00, 0x00, 0x00, 0x00,
   0x00, 0x00, 0x00, 0x00, 0x00, 0x00, 0x00, 0x00, 0x00, 0x00, 0x00, 0x00,
   0x00, 0x00, 0x00, 0x00, 0x00, 0x00, 0x00, 0x00, 0x00, 0x00, 0x00, 0x00,
   0x00, 0x00, 0x00, 0x00, 0x00, 0x00, 0x00, 0x00, 0x00, 0x00, 0x00, 0x00,
   0x00, 0x00, 0x00, 0x00, 0x00, 0x00, 0x00, 0x00, 0x00, 0x00, 0x00, 0x00,
   0x00, 0x00, 0x00, 0x00, 0x00, 0x00, 0x00, 0x00, 0x00, 0x00, 0x00, 0x00,
   0x00, 0x00, 0x00, 0x00, 0x00, 0x00, 0x00, 0x00, 0x00, 0x00, 0x00, 0x08,
   0x02, 0x80, 0x20, 0x00, 0x00, 0x00, 0x82, 0x00, 0x20, 0x08, 0x80, 0x20,
   0x00, 0x00, 0x00, 0x08, 0x02, 0x00, 0x10, 0x04, 0x40, 0x50, 0x00, 0x00,
   0x00, 0x04, 0x01, 0x10, 0x04, 0x00, 0x41, 0x00, 0x00, 0x00, 0x04, 0x01,
   0x00, 0x20, 0x02, 0x80, 0x08, 0x00, 0x00, 0x00, 0x88, 0x00, 0x20, 0x02,
   0x00, 0x22, 0x00, 0x00, 0x00, 0x88, 0x00, 0x00, 0x40, 0x01, 0x00, 0x05,
   0x00, 0x00, 0x00, 0x50, 0x00, 0x40, 0x04, 0x00, 0x11, 0x00, 0x00, 0x00,
   0x10, 0x01, 0x00, 0x80, 0xa0, 0x00, 0x02, 0x02, 0x00, 0x00, 0x20, 0x00,
   0x80, 0xa2, 0x00, 0x0a, 0x02, 0x00, 0x00, 0xa0, 0x00, 0x00, 0x40, 0x11,
   0x01, 0x05, 0x01, 0x00, 0x00, 0x50, 0x22, 0x00, 0x11, 0x01, 0x04, 0x05,
   0x00, 0x00, 0x40, 0x28, 0x00, 0x20, 0x8a, 0x80, 0x08, 0x02, 0x00, 0x00,
   0x88, 0x44, 0x80, 0x20, 0x02, 0x08, 0x02, 0x00, 0x00, 0x20, 0x54, 0x00,
   0x10, 0x14, 0x51, 0x10, 0x41, 0x44, 0x44, 0x04, 0x23, 0x04, 0x11, 0x11,
   0x04, 0x04, 0x11, 0x11, 0x41, 0x88, 0x00, 0x08, 0x8a, 0x88, 0x20, 0x82,
   0x88, 0x88, 0x82, 0x44, 0x82, 0x20, 0x22, 0x08, 0x82, 0x88, 0x88, 0x20,
   0x44, 0x00, 0x00, 0x10, 0x11, 0x00, 0x01, 0x00, 0x00, 0x00, 0x22, 0x04,
   0x10, 0x01, 0x00, 0x04, 0x01, 0x00, 0x01, 0x88, 0x00, 0x00, 0x88, 0x08,
   0x00, 0x02, 0x00, 0x00, 0x00, 0x44, 0x02, 0x20, 0x02, 0x00, 0x82, 0x00,
   0x80, 0x00, 0x44, 0x00, 0x00, 0x10, 0x01, 0x00, 0x01, 0x00, 0x00, 0x00,
   0x22, 0x00, 0x10, 0x01, 0x00, 0x04, 0x00, 0x00, 0x00, 0x88, 0x00, 0x00,
   0xa0, 0x00, 0x00, 0x02, 0x00, 0x00, 0x00, 0x00, 0x00, 0xa0, 0x00, 0x00,
   0x02, 0x00, 0x00, 0x00, 0x00, 0x00, 0x00, 0x00, 0x00, 0x00, 0x00, 0x00,
   0x00, 0x00, 0x00, 0x00, 0x00, 0x00, 0x00, 0x00, 0x00, 0x00, 0x00, 0x00,
   0x00, 0x00, 0x00, 0x00, 0x00, 0x00, 0x00, 0x00, 0x00, 0x00, 0x00, 0x00,
   0x00, 0x00, 0x00, 0x00, 0x00, 0x00, 0x00, 0x00};
