#define vector1_insens_width 124
#define vector1_insens_height 20
static unsigned char vector1_insens_bits[] = {
   0x00, 0x00, 0x00, 0x00, 0x00, 0x00, 0x00, 0x00, 0x00, 0x00, 0x00, 0x00,
   0x00, 0x00, 0x00, 0x00, 0x00, 0x00, 0x00, 0x00, 0x00, 0x00, 0x00, 0x00,
   0x00, 0x00, 0x00, 0x00, 0x00, 0x00, 0x00, 0x00, 0x00, 0x00, 0x00, 0x00,
   0x00, 0x00, 0x00, 0x00, 0x00, 0x00, 0x00, 0x00, 0x00, 0x00, 0x00, 0x00,
   0x00, 0x00, 0x00, 0x00, 0x00, 0x00, 0x00, 0x00, 0x00, 0x00, 0x00, 0x00,
   0x00, 0x00, 0x00, 0x00, 0x00, 0x00, 0x00, 0x00, 0x00, 0x00, 0x00, 0x00,
   0x00, 0x00, 0x00, 0x00, 0x00, 0x00, 0x00, 0x00, 0x08, 0x02, 0x08, 0x02,
   0x00, 0x82, 0x00, 0x82, 0x00, 0x00, 0x00, 0x08, 0x02, 0x08, 0x02, 0x00,
   0x10, 0x04, 0x04, 0x01, 0x00, 0x04, 0x01, 0x41, 0x00, 0x00, 0x00, 0x10,
   0x04, 0x04, 0x01, 0x00, 0x20, 0x02, 0x88, 0x00, 0x00, 0x88, 0x00, 0x22,
   0x00, 0x00, 0x00, 0x20, 0x02, 0x88, 0x00, 0x00, 0x40, 0x01, 0x10, 0x01,
   0x00, 0x50, 0x00, 0x44, 0x00, 0x00, 0x00, 0x40, 0x01, 0x10, 0x01, 0x00,
   0x80, 0xa0, 0xa0, 0x28, 0x00, 0x20, 0x08, 0x28, 0x08, 0x00, 0x00, 0x80,
   0x00, 0xa0, 0x00, 0x00, 0x40, 0x11, 0x41, 0x44, 0x00, 0x50, 0x14, 0x10,
   0x05, 0x00, 0x00, 0x40, 0x11, 0x41, 0x28, 0x00, 0x20, 0x8a, 0x20, 0x88,
   0x00, 0x88, 0x08, 0x08, 0x08, 0x00, 0x00, 0x20, 0x22, 0x22, 0x54, 0x00,
   0x10, 0x14, 0x41, 0x44, 0x04, 0x04, 0x11, 0x10, 0x04, 0x11, 0x11, 0x11,
   0x14, 0x41, 0x88, 0x00, 0x08, 0x8a, 0x20, 0x88, 0x08, 0x82, 0x08, 0x08,
   0x08, 0x22, 0x22, 0x0a, 0x22, 0x22, 0x44, 0x00, 0x00, 0x10, 0x01, 0x44,
   0x00, 0x00, 0x10, 0x00, 0x04, 0x00, 0x00, 0x00, 0x10, 0x01, 0x88, 0x00,
   0x00, 0x88, 0x00, 0x88, 0x00, 0x00, 0x08, 0x00, 0x08, 0x00, 0x00, 0x00,
   0x20, 0x02, 0x44, 0x00, 0x00, 0x10, 0x01, 0x44, 0x00, 0x00, 0x10, 0x00,
   0x04, 0x00, 0x00, 0x00, 0x10, 0x01, 0x88, 0x00, 0x00, 0xa0, 0x00, 0x28,
   0x00, 0x00, 0x08, 0x00, 0x08, 0x00, 0x00, 0x00, 0x00, 0x00, 0x00, 0x00,
   0x00, 0x00, 0x00, 0x00, 0x00, 0x00, 0x00, 0x00, 0x00, 0x00, 0x00, 0x00,
   0x00, 0x00, 0x00, 0x00, 0x00, 0x00, 0x00, 0x00, 0x00, 0x00, 0x00, 0x00,
   0x00, 0x00, 0x00, 0x00, 0x00, 0x00, 0x00, 0x00};
