#define vector1_width 124
#define vector1_height 20
static unsigned char vector1_bits[] = {
   0x00, 0x00, 0x00, 0x00, 0x00, 0x00, 0x00, 0x00, 0x00, 0x00, 0x00, 0x00,
   0x00, 0x00, 0x00, 0x00, 0x00, 0x00, 0x00, 0x00, 0x00, 0x00, 0x00, 0x00,
   0x00, 0x00, 0x00, 0x00, 0x00, 0x00, 0x00, 0x00, 0x00, 0x00, 0x00, 0x00,
   0x00, 0x00, 0x00, 0x00, 0x00, 0x00, 0x00, 0x00, 0x00, 0x00, 0x00, 0x00,
   0x00, 0x00, 0x00, 0x00, 0x00, 0x00, 0x00, 0x00, 0x00, 0x00, 0x00, 0x00,
   0x00, 0x00, 0x00, 0x00, 0x00, 0x00, 0x00, 0x00, 0x00, 0x00, 0x00, 0x00,
   0x00, 0x00, 0x00, 0x00, 0x00, 0x00, 0x00, 0x00, 0x18, 0x06, 0x0c, 0x03,
   0x00, 0x86, 0x01, 0xc3, 0x00, 0x00, 0x00, 0x18, 0x06, 0x0c, 0x03, 0x00,
   0x18, 0x06, 0x0c, 0x03, 0x00, 0x86, 0x01, 0xc3, 0x00, 0x00, 0x00, 0x18,
   0x06, 0x0c, 0x03, 0x00, 0x30, 0x03, 0x98, 0x01, 0x00, 0xcc, 0x00, 0x66,
   0x00, 0x00, 0x00, 0x30, 0x03, 0x98, 0x01, 0x00, 0xe0, 0x01, 0x98, 0x01,
   0x00, 0x78, 0x00, 0x66, 0x00, 0x00, 0x00, 0xe0, 0x01, 0x98, 0x01, 0x00,
   0xc0, 0xe0, 0xf1, 0x78, 0x00, 0x30, 0x18, 0x3c, 0x0c, 0x00, 0x00, 0xc0,
   0x60, 0xf3, 0xd8, 0x00, 0xe0, 0x31, 0x63, 0xcc, 0x00, 0x78, 0x1e, 0x18,
   0x0f, 0x00, 0x00, 0xe0, 0xe1, 0x66, 0xb8, 0x01, 0x30, 0x33, 0x63, 0xcc,
   0x00, 0xcc, 0x18, 0x18, 0x0c, 0x00, 0x00, 0x30, 0x63, 0x66, 0x98, 0x01,
   0x18, 0x36, 0x63, 0xcc, 0x0c, 0x86, 0x19, 0x18, 0x0c, 0x33, 0x33, 0x1b,
   0x66, 0x66, 0x98, 0x01, 0x18, 0x36, 0x63, 0xcc, 0x0c, 0x86, 0x19, 0x18,
   0x0c, 0x33, 0x33, 0x1b, 0x66, 0x66, 0x98, 0x01, 0x00, 0x30, 0x03, 0xcc,
   0x08, 0x00, 0x18, 0x00, 0x0c, 0x02, 0x00, 0x02, 0x60, 0x06, 0x98, 0x01,
   0x00, 0x30, 0x03, 0xcc, 0x04, 0x00, 0x18, 0x00, 0x0c, 0x01, 0x00, 0x01,
   0x60, 0x06, 0x98, 0x01, 0x00, 0x30, 0x03, 0xcc, 0x00, 0x00, 0x18, 0x00,
   0x0c, 0x00, 0x00, 0x00, 0x00, 0x00, 0x00, 0x00, 0x00, 0xe0, 0x01, 0x78,
   0x00, 0x00, 0x18, 0x00, 0x0c, 0x00, 0x00, 0x00, 0x00, 0x00, 0x00, 0x00,
   0x00, 0x00, 0x00, 0x00, 0x00, 0x00, 0x00, 0x00, 0x00, 0x00, 0x00, 0x00,
   0x00, 0x00, 0x00, 0x00, 0x00, 0x00, 0x00, 0x00, 0x00, 0x00, 0x00, 0x00,
   0x00, 0x00, 0x00, 0x00, 0x00, 0x00, 0x00, 0x00};
