#define vector2_width 148
#define vector2_height 20
static unsigned char vector2_bits[] = {
   0x00, 0x00, 0x00, 0x00, 0x00, 0x00, 0x00, 0x00, 0x00, 0x00, 0x00, 0x00,
   0x00, 0x00, 0x00, 0x00, 0x00, 0x00, 0x00, 0x00, 0x00, 0x00, 0x00, 0x00,
   0x00, 0x00, 0x00, 0x00, 0x00, 0x00, 0x00, 0x00, 0x00, 0x00, 0x00, 0x00,
   0x00, 0x00, 0x00, 0x00, 0x00, 0x00, 0x00, 0x00, 0x00, 0x00, 0x00, 0x00,
   0x00, 0x00, 0x00, 0x00, 0x00, 0x00, 0x00, 0x00, 0x00, 0x00, 0x00, 0x00,
   0x00, 0x00, 0x00, 0x00, 0x00, 0x00, 0x00, 0x00, 0x00, 0x00, 0x00, 0x00,
   0x00, 0x00, 0x00, 0x00, 0x00, 0x00, 0x00, 0x00, 0x00, 0x00, 0x00, 0x00,
   0x00, 0x00, 0x00, 0x00, 0x00, 0x00, 0x00, 0x00, 0x00, 0x00, 0x00, 0x18,
   0x06, 0xc0, 0x30, 0x00, 0x00, 0x00, 0x86, 0x01, 0x30, 0x0c, 0x80, 0x61,
   0x00, 0x00, 0x00, 0x0c, 0x03, 0x00, 0x18, 0x06, 0xc0, 0x30, 0x00, 0x00,
   0x00, 0x86, 0x01, 0x30, 0x0c, 0x80, 0x61, 0x00, 0x00, 0x00, 0x0c, 0x03,
   0x00, 0x30, 0x03, 0x80, 0x19, 0x00, 0x00, 0x00, 0xcc, 0x00, 0x60, 0x06,
   0x00, 0x33, 0x00, 0x00, 0x00, 0x98, 0x01, 0x00, 0xe0, 0x01, 0x00, 0x0f,
   0x00, 0x00, 0x00, 0x78, 0x00, 0x60, 0x06, 0x00, 0x33, 0x00, 0x00, 0x00,
   0x98, 0x01, 0x00, 0xc0, 0xe0, 0x01, 0x06, 0x03, 0x00, 0x00, 0x30, 0x6c,
   0xc0, 0xe3, 0x01, 0x1e, 0x06, 0x00, 0x00, 0xf0, 0x6c, 0x00, 0xe0, 0x31,
   0x03, 0xcf, 0x03, 0x00, 0x00, 0x78, 0xdc, 0x80, 0x31, 0x03, 0x8c, 0x07,
   0x00, 0x00, 0x60, 0xdc, 0x00, 0x30, 0x33, 0x83, 0x19, 0x03, 0x00, 0x00,
   0xcc, 0xcc, 0x80, 0x31, 0x03, 0x0c, 0x06, 0x00, 0x00, 0x60, 0xcc, 0x00,
   0x18, 0x36, 0xdb, 0x30, 0xc3, 0xcc, 0xcc, 0x86, 0xcd, 0x86, 0x31, 0x33,
   0x0c, 0x86, 0x99, 0x99, 0x61, 0xcc, 0x00, 0x18, 0x36, 0xdb, 0x30, 0xc3,
   0xcc, 0xcc, 0x86, 0xcd, 0x86, 0x31, 0x33, 0x0c, 0x86, 0x99, 0x99, 0x61,
   0xcc, 0x00, 0x00, 0x30, 0x13, 0x00, 0x83, 0x00, 0x80, 0x00, 0xcc, 0x04,
   0x30, 0x23, 0x00, 0x06, 0x01, 0x00, 0x01, 0xcc, 0x00, 0x00, 0x30, 0x0b,
   0x00, 0x43, 0x00, 0x40, 0x00, 0xcc, 0x02, 0x30, 0x13, 0x00, 0x86, 0x00,
   0x80, 0x00, 0xcc, 0x00, 0x00, 0x30, 0x03, 0x00, 0x03, 0x00, 0x00, 0x00,
   0x00, 0x00, 0x30, 0x03, 0x00, 0x06, 0x00, 0x00, 0x00, 0x00, 0x00, 0x00,
   0xe0, 0x01, 0x00, 0x03, 0x00, 0x00, 0x00, 0x00, 0x00, 0xe0, 0x01, 0x00,
   0x06, 0x00, 0x00, 0x00, 0x00, 0x00, 0x00, 0x00, 0x00, 0x00, 0x00, 0x00,
   0x00, 0x00, 0x00, 0x00, 0x00, 0x00, 0x00, 0x00, 0x00, 0x00, 0x00, 0x00,
   0x00, 0x00, 0x00, 0x00, 0x00, 0x00, 0x00, 0x00, 0x00, 0x00, 0x00, 0x00,
   0x00, 0x00, 0x00, 0x00, 0x00, 0x00, 0x00, 0x00};
